<?xml version="1.0" encoding="utf-8"?>
<!-- Generator: Adobe Illustrator 16.0.4, SVG Export Plug-In . SVG Version: 6.00 Build 0)  -->
<!DOCTYPE svg PUBLIC "-//W3C//DTD SVG 1.1//EN" "http://www.w3.org/Graphics/SVG/1.1/DTD/svg11.dtd">
<svg version="1.1" id="Layer_1" xmlns="http://www.w3.org/2000/svg" xmlns:xlink="http://www.w3.org/1999/xlink" x="0px" y="0px"
	 width="131px" height="64px" viewBox="20.5 9.5 131 64" enable-background="new 20.5 9.5 131 64" xml:space="preserve">
<path fill="#215AA6" d="M55.8,16.5c0.2,0.1,0.3,0,0.5,0.1c0.6,0,1,0.4,1,1c0.1,0.6-0.4,1.2-1,1.2c-0.4,0-0.8,0-1.1-0.1
	c-0.5-0.1-0.8-0.5-0.9-0.9c-0.1-0.5,0.2-0.9,0.6-1.1c0.1,0,0.2,0,0.2-0.1C55.3,16.5,55.6,16.5,55.8,16.5z"/>
<path fill="#293C93" d="M85.8,41.8c0.4,0,0.8,0.3,1.101,0.8c0.199,0.4,0.3,0.8,0.399,1.2c0.2,0.7-0.2,1.4-0.9,1.6
	c-0.7,0.2-1.4-0.1-1.7-0.7c-0.2-0.4-0.3-0.8-0.4-1.2C84.2,42.6,84.8,41.8,85.8,41.8z"/>
<path fill="#293C93" d="M83.8,36.5c0.5,0,0.9,0.3,1.2,0.8c0.2,0.3,0.3,0.7,0.4,1c0.2,0.7-0.1,1.5-0.8,1.7c-0.7,0.3-1.4,0-1.7-0.7
	c-0.1-0.3-0.3-0.6-0.4-1C82.2,37.3,82.9,36.5,83.8,36.5z"/>
<path fill="#293C93" d="M89.2,48.2c0,0.6-0.4,1.1-0.9,1.3s-1.1,0-1.5-0.5c-0.2-0.4-0.5-0.7-0.6-1.1c-0.3-0.6,0-1.3,0.6-1.7
	c0.601-0.3,1.3-0.1,1.7,0.4c0.2,0.4,0.4,0.8,0.6,1.1C89.2,47.9,89.2,48.1,89.2,48.2z"/>
<path fill="#294095" d="M82,35.9c-0.3,0-0.7-0.2-0.9-0.6c-0.2-0.3-0.4-0.6-0.5-0.9c-0.3-0.6-0.1-1.4,0.5-1.7
	c0.6-0.4,1.4-0.2,1.7,0.4c0.2,0.3,0.4,0.6,0.5,0.9C83.8,34.8,83.1,35.9,82,35.9z"/>
<path fill="#293C93" d="M89.8,50.1c0.5,0,0.8,0.1,1,0.4c0.3,0.3,0.5,0.6,0.7,0.9c0.3,0.6,0.2,1.3-0.3,1.7S90,53.5,89.5,53
	c-0.3-0.3-0.5-0.6-0.7-1C88.3,51.2,88.9,50.1,89.8,50.1z"/>
<path fill="#294297" d="M80.9,30.7c0,0.6-0.3,1-0.8,1.2c-0.5,0.2-1.1,0.1-1.4-0.4c-0.2-0.3-0.5-0.6-0.7-0.9
	c-0.4-0.5-0.3-1.3,0.2-1.7s1.3-0.4,1.7,0.1c0.3,0.3,0.5,0.6,0.7,0.9C80.8,30.2,80.9,30.4,80.9,30.7z"/>
<path fill="#294095" d="M91.5,54.9c0-0.5,0.2-0.9,0.7-1.1c0.399-0.2,0.899-0.2,1.3,0.1c0.4,0.3,0.7,0.6,1,1c0.4,0.5,0.3,1.2-0.1,1.6
	C94,56.9,93.3,57,92.8,56.7c-0.399-0.3-0.7-0.6-1-1C91.6,55.4,91.5,55.1,91.5,54.9z"/>
<path fill="#294598" d="M76.6,28.5c-0.4,0-0.6-0.1-0.9-0.3c-0.2-0.2-0.5-0.5-0.7-0.7c-0.5-0.5-0.5-1.2,0-1.7s1.2-0.5,1.7-0.1
	c0.3,0.2,0.5,0.5,0.8,0.7c0.4,0.4,0.4,0.9,0.2,1.4C77.5,28.2,77.1,28.5,76.6,28.5z"/>
<path fill="#294297" d="M96.3,56.7c0.2,0,0.4,0.1,0.601,0.2c0.3,0.2,0.6,0.4,0.899,0.7c0.5,0.4,0.601,1.1,0.2,1.7
	c-0.4,0.5-1.1,0.7-1.6,0.3c-0.301-0.2-0.601-0.4-0.9-0.7c-0.4-0.3-0.5-0.9-0.3-1.4C95.3,57,95.7,56.7,96.3,56.7z"/>
<path fill="#29499A" d="M74.3,24.2c0,0.5-0.2,0.8-0.6,1.1c-0.4,0.2-0.8,0.2-1.2,0c-0.3-0.2-0.6-0.4-0.9-0.7
	c-0.5-0.4-0.5-1.1-0.2-1.6c0.4-0.5,1-0.7,1.6-0.3c0.3,0.2,0.7,0.4,1,0.7C74.2,23.5,74.3,23.8,74.3,24.2z"/>
<path fill="#294297" d="M102,61c0,0.8-0.8,1.4-1.6,1.1c-0.4-0.2-0.801-0.4-1.101-0.6c-0.5-0.4-0.6-1-0.3-1.6c0.3-0.5,1-0.7,1.5-0.5
	c0.3,0.2,0.7,0.4,1,0.6C101.8,60.3,102,60.6,102,61z"/>
<path fill="#284D9D" d="M69.3,22.9c-0.2,0-0.3,0-0.5-0.1c-0.3-0.2-0.6-0.3-0.8-0.5c-0.4-0.3-0.7-0.7-0.6-1.2s0.4-0.9,0.9-1
	c0.2-0.1,0.5,0,0.7,0.1c0.3,0.2,0.6,0.3,0.9,0.5c0.5,0.3,0.7,0.8,0.5,1.3C70.3,22.5,69.8,22.9,69.3,22.9z"/>
<path fill="#294598" d="M104.3,61.4c0.5,0.1,1,0.3,1.5,0.7c0.4,0.3,0.5,1,0.2,1.4c-0.3,0.5-0.8,0.7-1.3,0.5
	c-0.4-0.1-0.7-0.3-1.101-0.4c-0.5-0.2-0.699-0.8-0.6-1.3S103.6,61.4,104.3,61.4z"/>
<path fill="#2551A0" d="M64.3,18.3c0.1,0,0.2,0,0.4,0.1c0.3,0.1,0.6,0.2,0.9,0.3c0.5,0.2,0.8,0.7,0.7,1.2c-0.1,0.6-0.5,1-1,1
	c-0.1,0-0.3,0-0.4,0c-0.4-0.1-0.7-0.2-1.1-0.4c-0.4-0.2-0.7-0.6-0.6-1.1c0-0.5,0.3-0.9,0.7-1C64,18.3,64.2,18.3,64.3,18.3z"/>
<path fill="#29499A" d="M111.6,60.2c0,0,0,0.1,0,0.2c-0.1,0.3-0.199,0.7-0.3,1c-0.2,0.6-0.7,0.9-1.3,0.8c-0.5-0.1-0.9-0.6-0.9-1.2
	c0-0.1,0-0.2,0-0.2c0.101-0.3,0.2-0.7,0.301-1c0.199-0.4,0.6-0.7,1.1-0.7s0.9,0.3,1,0.8C111.6,60,111.6,60.1,111.6,60.2z"/>
<path fill="#294598" d="M60.5,20.7c0,0.2,0,0.3-0.1,0.5c-0.1,0.3-0.3,0.5-0.4,0.8c-0.3,0.6-1,0.8-1.5,0.5S57.7,21.6,58,21
	c0.1-0.3,0.3-0.6,0.4-0.9c0.2-0.5,0.8-0.7,1.3-0.6C60.2,19.7,60.6,20.1,60.5,20.7z"/>
<path fill="#2356A3" d="M58.8,18.2c0-0.7,0.6-1.2,1.3-1.1c0.3,0.1,0.6,0.1,0.9,0.2c0.6,0.1,1,0.7,0.8,1.3c-0.1,0.6-0.7,1-1.3,0.8
	c-0.3-0.1-0.6-0.1-0.9-0.2C59.1,19.1,58.8,18.7,58.8,18.2z"/>
<path fill="#29499A" d="M113.7,66c-0.2,0-0.5,0-0.8-0.1c-0.5-0.1-0.9-0.5-1-1c-0.101-0.5,0.199-1,0.699-1.1
	c0.101-0.1,0.301-0.1,0.4-0.1c0.4,0,0.7,0,1.1,0.1c0.5,0.1,0.9,0.5,0.9,1s-0.3,1-0.8,1.1C114.1,66.1,113.9,66,113.7,66z"/>
<path fill="#294598" d="M99.4,48.9c0.6,0,1.1,0.6,1,1.2c0,0.3-0.101,0.7-0.2,1C100.1,51.6,99.6,52,99.1,52s-1-0.4-1.1-0.9
	c0-0.1,0-0.2,0-0.4c0.1-0.3,0.2-0.7,0.3-1C98.5,49.2,98.9,48.9,99.4,48.9z"/>
<path fill="#294598" d="M70.6,31c0,0.2,0,0.3-0.1,0.5s-0.1,0.5-0.2,0.7c-0.2,0.6-0.7,0.9-1.2,0.8c-0.6-0.1-0.9-0.6-0.8-1.2
	c0.1-0.3,0.1-0.7,0.2-1c0.1-0.5,0.6-0.9,1.2-0.8C70.2,30,70.6,30.4,70.6,31z"/>
<path fill="#284D9D" d="M118,63.9c0.1,0,0.3,0,0.4,0c0.6,0,1,0.4,1,1c0,0.5-0.4,1-0.9,1.1c-0.3,0-0.7,0.1-1,0.1
	c-0.6,0-1.1-0.4-1.1-1c0-0.7,0.5-1.1,1-1.1C117.7,64,117.9,63.9,118,63.9z"/>
<path fill="#284D9D" d="M121.1,64.6c0-0.4,0.301-0.8,0.601-0.9c0.1-0.1,0.2-0.1,0.3-0.2c0.3-0.3,0.8-0.4,1.2-0.1
	c0.1,0.1,0.2,0.1,0.3,0.2c0.4,0.2,0.6,0.6,0.5,1s-0.3,0.7-0.8,0.8c-0.4,0.1-0.7,0.2-1.101,0.2C121.6,65.7,121.1,65.2,121.1,64.6z"/>
<path fill="#2362AC" d="M51.1,18.7c-0.1,0-0.3,0-0.4,0c-0.6,0-1-0.5-1-1s0.4-1,0.9-1.1c0.3,0,0.7,0,1-0.1c0.5,0,1,0.3,1.1,1
	c0,0.5-0.4,1-0.9,1.1C51.6,18.7,51.3,18.7,51.1,18.7L51.1,18.7z"/>
<path fill="#294598" d="M110.5,64.3c0,0.7-0.6,1.2-1.3,1.1c-0.3,0-0.601-0.1-0.9-0.2c-0.3-0.1-0.7-0.7-0.7-1.1
	c0-0.6,0.4-1.1,1.101-1.1c0.399,0.1,0.8,0.1,1.2,0.4C110.3,63.6,110.5,63.9,110.5,64.3z"/>
<path fill="#2356A3" d="M57.5,23.8c0.7,0,1.2,0.7,1,1.3c-0.1,0.3-0.3,0.7-0.4,1c-0.2,0.5-0.8,0.7-1.2,0.5c-0.5-0.2-0.7-0.7-0.6-1.2
	c0.1-0.3,0.2-0.7,0.4-1C56.7,24,57.1,23.8,57.5,23.8z"/>
<path fill="#294598" d="M112.7,55.8c-0.101,0.4-0.101,0.8-0.3,1.3c-0.2,0.5-0.801,0.7-1.2,0.5c-0.5-0.2-0.8-0.7-0.7-1.2
	c0.1-0.3,0.2-0.7,0.3-1c0.2-0.5,0.601-0.7,1.101-0.6C112.4,54.8,112.7,55.2,112.7,55.8z"/>
<path fill="#2362AC" d="M47.1,17.1c0.6,0,1,0.4,1.1,0.9c0.1,0.5-0.2,1-0.7,1.1c-0.4,0.1-0.8,0.2-1.1,0.2c-0.5,0.1-0.9-0.3-1-0.8
	s0.1-1,0.6-1.2C46.2,17.2,46.7,17.1,47.1,17.1z"/>
<path fill="#284D9D" d="M125.6,63.5c0-0.3,0.2-0.7,0.601-0.8c0.399-0.1,0.7-0.3,1.1-0.3c0.5-0.1,0.9,0.2,1.101,0.6
	c0.199,0.5,0,1-0.4,1.2c-0.4,0.2-0.8,0.3-1.3,0.4C126.1,64.7,125.6,64.2,125.6,63.5z"/>
<path fill="#2667AF" d="M40.8,19.4c0-0.3,0.2-0.6,0.6-0.8c0.3-0.1,0.7-0.3,1-0.3c0.5-0.1,1,0.1,1.2,0.6c0.2,0.5-0.1,1-0.6,1.2
	c-0.3,0.1-0.6,0.2-0.9,0.3C41.4,20.6,40.8,20.1,40.8,19.4z"/>
<path fill="#2551A0" d="M130.9,62.9c-0.4,0-0.801-0.3-0.9-0.7c-0.1-0.4,0-0.8,0.4-1.1c0.3-0.2,0.699-0.4,1.1-0.5
	c0.4-0.2,0.9,0,1.1,0.5c0.2,0.4,0.101,0.9-0.3,1.2c-0.3,0.2-0.7,0.4-1.1,0.6C131,62.9,130.9,62.9,130.9,62.9z"/>
<path fill="#216BB3" d="M38.4,20c0.4,0,0.8,0.3,0.9,0.7c0.1,0.4,0,0.8-0.4,1c-0.3,0.2-0.7,0.4-1,0.5c-0.4,0.2-0.9,0-1.1-0.4
	c-0.2-0.4-0.1-0.9,0.3-1.2c0.3-0.2,0.7-0.4,1-0.5C38.2,20,38.3,20,38.4,20z"/>
<path fill="#294598" d="M67.7,36.3c0-0.3,0-0.6,0.1-0.9c0.1-0.4,0.4-0.8,0.8-0.8c0.4-0.1,0.8,0.2,1,0.5c0.1,0.1,0.1,0.3,0.1,0.4
	c-0.1,0.4-0.1,0.7-0.2,1.1c-0.1,0.6-0.8,0.8-1.3,0.5C67.7,37,67.6,36.7,67.7,36.3z"/>
<path fill="#2551A0" d="M136.5,59.1c0,0.2-0.1,0.5-0.3,0.7c-0.3,0.2-0.5,0.4-0.8,0.6c-0.4,0.3-0.9,0.2-1.2-0.2
	c-0.3-0.4-0.2-0.9,0.2-1.2c0.3-0.2,0.6-0.4,0.899-0.6C135.7,58,136.5,58.4,136.5,59.1z"/>
<path fill="#294598" d="M101,45.5c0,0.3-0.1,0.7-0.1,1c-0.101,0.5-0.5,0.8-1,0.7c-0.4,0-0.801-0.4-0.801-0.9
	c0-0.4,0.101-0.8,0.2-1.3c0.101-0.4,0.601-0.6,1-0.6C100.7,44.6,101,45,101,45.5z"/>
<path fill="#2362AC" d="M54.9,30.1V30c0.1-0.3,0.2-0.6,0.2-1c0.2-0.5,0.6-0.8,1.1-0.6c0.5,0.1,0.8,0.6,0.6,1.1
	c-0.1,0.3-0.2,0.6-0.3,1c-0.2,0.4-0.6,0.6-1,0.5C55.2,30.9,54.9,30.5,54.9,30.1z"/>
<path fill="#1E6FB6" d="M34.5,22.4c0.4,0,0.7,0.2,0.8,0.5c0.1,0.3,0.1,0.7-0.2,1c-0.3,0.3-0.6,0.5-0.9,0.7c-0.4,0.2-0.9,0.1-1.1-0.2
	c-0.3-0.4-0.2-0.9,0.1-1.2c0.3-0.3,0.6-0.5,0.9-0.7C34.2,22.4,34.3,22.4,34.5,22.4z"/>
<path fill="#294297" d="M113.6,51.3c0,0.3-0.1,0.7-0.199,1.1c-0.101,0.5-0.601,0.7-1.101,0.6c-0.399-0.1-0.8-0.6-0.7-1
	c0.101-0.3,0.101-0.7,0.2-1c0.101-0.5,0.5-0.7,1-0.7C113.3,50.4,113.6,50.8,113.6,51.3z"/>
<path fill="#2356A3" d="M139.8,55.9c0,0.2-0.1,0.4-0.2,0.6c-0.199,0.3-0.399,0.5-0.699,0.8c-0.301,0.3-0.9,0.3-1.2,0
	c-0.3-0.3-0.4-0.8-0.101-1.2c0.2-0.3,0.5-0.5,0.7-0.8c0.3-0.2,0.601-0.3,0.9-0.1C139.6,55.3,139.8,55.6,139.8,55.9z"/>
<path fill="#1A72B8" d="M31.9,26.4c0,0.2-0.1,0.4-0.2,0.5c-0.2,0.2-0.4,0.4-0.6,0.7c-0.3,0.4-0.8,0.4-1.2,0.1
	c-0.4-0.3-0.4-0.8-0.1-1.2c0.2-0.2,0.4-0.5,0.6-0.7c0.2-0.3,0.6-0.3,0.9-0.2C31.7,25.7,31.9,26,31.9,26.4z"/>
<path fill="#294598" d="M123.9,61.4c-0.5,0-1-0.5-0.801-1c0.101-0.3,0.2-0.7,0.301-1c0.199-0.4,0.6-0.6,1-0.5
	c0.399,0.1,0.699,0.5,0.6,1c-0.1,0.3-0.2,0.6-0.3,0.9C124.6,61.2,124.3,61.4,123.9,61.4z"/>
<path fill="#2356A3" d="M141.2,53.9c-0.601,0-1-0.6-0.8-1.1c0.199-0.4,0.399-0.8,0.699-1.1c0.2-0.3,0.7-0.3,1-0.1
	c0.301,0.2,0.5,0.6,0.301,1c-0.2,0.4-0.4,0.7-0.601,1.1C141.6,53.8,141.4,53.9,141.2,53.9z"/>
<path fill="#1A72B8" d="M45.2,24.7c0,0,0,0.1,0,0.2c-0.1,0.3-0.2,0.7-0.3,1c-0.1,0.4-0.5,0.5-0.9,0.5c-0.4-0.1-0.6-0.3-0.7-0.7
	c0-0.1,0-0.2,0-0.3c0.1-0.3,0.2-0.7,0.3-1c0.1-0.3,0.4-0.5,0.8-0.5c0.3,0,0.6,0.2,0.8,0.5C45.1,24.5,45.1,24.6,45.2,24.7z"/>
<path fill="#29499A" d="M71.1,25.3c-0.7-0.3-1.4,0.2-1.6,0.8c-0.1,0.3-0.2,0.6-0.3,0.9c-0.1,0.5,0,0.9,0.3,1.3
	c0.1,0.1,0.3,0.3,0.5,0.3c0.5,0.2,1.2,0,1.5-0.6c0.2-0.4,0.3-0.7,0.4-1.1C72.2,26.2,71.7,25.5,71.1,25.3z"/>
<path fill="#29499A" d="M136.5,55.1v0.1c-0.1,0.3-0.2,0.7-0.3,1c-0.101,0.4-0.5,0.6-0.8,0.6c-0.4,0-0.7-0.3-0.801-0.7
	c0-0.1,0-0.2,0-0.3c0.101-0.3,0.2-0.7,0.301-1c0.1-0.3,0.5-0.6,0.8-0.5c0.399,0,0.7,0.3,0.7,0.7C136.5,55,136.5,55.1,136.5,55.1z"/>
<path fill="#1576BB" d="M27.9,31.6c-0.6,0-1-0.6-0.7-1.1c0.2-0.3,0.3-0.7,0.5-1c0.2-0.3,0.7-0.4,1.1-0.2c0.4,0.2,0.5,0.7,0.3,1
	c-0.2,0.3-0.4,0.6-0.6,1C28.4,31.5,28.1,31.6,27.9,31.6z"/>
<path fill="#216BB3" d="M45.8,22.1c-0.8,0-1.2-0.6-1-1.2c0.1-0.2,0.1-0.4,0.2-0.5c0.2-0.4,0.7-0.6,1.2-0.4c0.4,0.2,0.6,0.7,0.5,1.1
	c-0.1,0.2-0.2,0.4-0.3,0.6C46.2,22,46,22.1,45.8,22.1z"/>
<path fill="#294095" d="M98.3,53.2c0,0.4-0.1,0.7-0.2,1c-0.199,0.7-0.3,1.4-0.5,2c0,0.1,0,0.2,0,0.3c0.601,0.2,1.301-0.2,1.5-0.8
	c0.101-0.3,0.2-0.7,0.301-1C99.6,54,99.1,53.3,98.3,53.2z"/>
<path fill="#29499A" d="M98.1,54.2c0.101-0.3,0.2-0.7,0.2-1c-0.5-0.1-1,0.2-1.2,0.7C97,54.2,96.8,54.6,96.7,55
	c-0.2,0.7,0.2,1.4,0.899,1.6c0-0.1,0-0.2,0-0.3C97.8,55.6,98,54.9,98.1,54.2z"/>
<path fill="#216BB3" d="M55.7,33.8c-0.1,0.3-0.1,0.8-0.2,1.1c-0.1,0.3-0.5,0.5-0.8,0.5C54.3,35.3,54,35,54,34.6s0.1-0.7,0.2-1.1
	c0.1-0.4,0.5-0.6,0.9-0.6C55.4,33,55.7,33.3,55.7,33.8z"/>
<path fill="#1576BB" d="M26.4,33.5c0.5,0,0.9,0.5,0.8,1c-0.1,0.3-0.2,0.7-0.3,1c-0.1,0.4-0.6,0.6-0.9,0.4c-0.4-0.1-0.6-0.5-0.5-0.9
	c0.1-0.3,0.2-0.6,0.3-1C25.8,33.6,26.1,33.5,26.4,33.5z"/>
<path fill="#216BB3" d="M34.8,26.1c-0.1,0.4-0.3,0.9-0.5,1.3c-0.2,0.3-0.6,0.3-0.9,0.2c-0.3-0.1-0.5-0.5-0.4-0.8
	c0.1-0.4,0.2-0.8,0.4-1.2c0.2-0.3,0.5-0.5,0.9-0.4C34.6,25.4,34.8,25.7,34.8,26.1z"/>
<path fill="#294598" d="M114.1,46.7c0,0.3-0.1,0.7-0.1,1c-0.1,0.4-0.5,0.7-0.9,0.6c-0.399-0.1-0.699-0.4-0.699-0.9
	c0-0.3,0.1-0.6,0.1-0.9c0.1-0.4,0.4-0.7,0.8-0.6C113.9,45.9,114.2,46.3,114.1,46.7z"/>
<path fill="#215AA6" d="M145.2,43.7c0,0.2-0.101,0.6-0.101,0.9c-0.1,0.4-0.399,0.6-0.8,0.6c-0.399,0-0.7-0.4-0.7-0.8
	c0-0.3,0.101-0.7,0.101-1c0.1-0.5,0.399-0.7,0.8-0.6C144.9,42.8,145.2,43.1,145.2,43.7z"/>
<path fill="#294297" d="M126,55.2c-0.1,0.4-0.1,0.8-0.2,1.1c-0.1,0.4-0.5,0.6-0.899,0.5c-0.4-0.1-0.601-0.4-0.601-0.8
	c0.101-0.3,0.101-0.7,0.2-1c0.1-0.4,0.4-0.6,0.8-0.5C125.7,54.5,126,54.8,126,55.2z"/>
<path fill="#284D9D" d="M101.3,41.3c0,0.2,0,0.4,0,0.5c0,0.4-0.399,0.7-0.8,0.7s-0.7-0.4-0.7-0.8c0-0.3,0.101-0.7,0.101-1
	c0.1-0.4,0.399-0.6,0.699-0.6c0.4,0,0.7,0.3,0.7,0.7C101.3,40.9,101.3,41.1,101.3,41.3L101.3,41.3z"/>
<path fill="#1576BB" d="M26.1,38.8c0,0.3-0.1,0.6-0.1,0.9c-0.1,0.4-0.3,0.6-0.6,0.6c-0.3,0-0.7-0.2-0.8-0.5c0-0.1-0.1-0.2,0-0.3
	c0.1-0.2,0.1-0.5,0.1-0.7c0-0.1,0-0.2,0-0.2c0.1-0.4,0.4-0.6,0.8-0.6s0.7,0.3,0.7,0.8C26.1,38.8,26.1,38.8,26.1,38.8z"/>
<path fill="#29499A" d="M68.9,40.3c0,0.3-0.1,0.6-0.1,0.9c-0.1,0.4-0.4,0.6-0.7,0.6c-0.3,0-0.6-0.3-0.7-0.6c0-0.4,0-0.8,0-1.1
	c0-0.4,0.4-0.7,0.8-0.6C68.6,39.5,68.9,39.8,68.9,40.3z"/>
<path fill="#1A72B8" d="M43.8,29.1c-0.1,0.4-0.1,0.8-0.3,1.2c-0.1,0.3-0.5,0.5-0.8,0.4c-0.3-0.1-0.6-0.3-0.5-0.7
	c0-0.4,0.1-0.8,0.2-1.2c0.1-0.3,0.5-0.5,0.8-0.5C43.6,28.4,43.8,28.8,43.8,29.1z"/>
<path fill="#2356A3" d="M142.4,48.9c0-0.1,0-0.2,0.1-0.3c0.1-0.2,0.1-0.3,0.2-0.5c0.1-0.3,0.399-0.5,0.7-0.5
	c0.3,0,0.6,0.2,0.699,0.5c0.101,0.2,0.101,0.3,0,0.5c-0.1,0.2-0.199,0.5-0.3,0.7c-0.1,0.3-0.399,0.5-0.8,0.5c-0.3,0-0.6-0.2-0.7-0.6
	C142.4,49.1,142.4,49,142.4,48.9z"/>
<path fill="#215AA6" d="M145.2,39.6c0,0.1,0,0.1,0,0.2c0,0.5-0.3,0.7-0.601,0.7c-0.399,0-0.699-0.2-0.699-0.6c0-0.2,0-0.3,0-0.5
	c0-0.2,0-0.3,0-0.5c0-0.4,0.3-0.7,0.6-0.7c0.4,0,0.7,0.2,0.8,0.6C145.1,39.1,145.2,39.3,145.2,39.6z"/>
<path fill="#1576BB" d="M26.1,44.2c0,0.4-0.3,0.7-0.6,0.8c-0.4,0-0.7-0.2-0.7-0.6c0-0.3-0.1-0.6-0.1-0.9c0-0.4,0.2-0.7,0.6-0.8
	c0.4-0.1,0.7,0.2,0.8,0.6C26.1,43.5,26.1,43.9,26.1,44.2z"/>
<path fill="#294598" d="M137.5,50.7c-0.1,0.3-0.1,0.6-0.2,1c-0.1,0.3-0.399,0.5-0.8,0.5c-0.3-0.1-0.6-0.4-0.6-0.7
	c0-0.4,0.1-0.8,0.3-1.1c0.1-0.3,0.5-0.5,0.8-0.4C137.3,50,137.5,50.3,137.5,50.7z"/>
<path fill="#215AA6" d="M142.8,34.5c0-0.4,0.2-0.6,0.5-0.7c0.3-0.1,0.601,0,0.8,0.3c0.2,0.4,0.301,0.7,0.4,1.1
	c0.1,0.3-0.1,0.6-0.4,0.7c-0.3,0.1-0.6,0-0.8-0.3C143,35.3,142.9,34.8,142.8,34.5z"/>
<path fill="#1A72B8" d="M33.3,30.5c0,0.1,0,0.1,0,0.2c-0.1,0.3-0.1,0.5-0.2,0.8c-0.1,0.4-0.4,0.6-0.8,0.5c-0.3-0.1-0.5-0.4-0.5-0.8
	c0.1-0.3,0.1-0.6,0.2-0.9c0.1-0.3,0.4-0.5,0.7-0.4C33.1,29.8,33.3,30.1,33.3,30.5z"/>
<path fill="#1576BB" d="M26.5,49.4c-0.2,0-0.5-0.1-0.6-0.4s-0.2-0.6-0.3-1c-0.1-0.3,0.1-0.7,0.4-0.8c0.3-0.1,0.7,0,0.8,0.3
	c0.1,0.3,0.3,0.7,0.3,1C27.3,49,27,49.4,26.5,49.4z"/>
<path fill="#294297" d="M126.6,50.8c0,0.3-0.1,0.6-0.1,0.9c-0.1,0.4-0.4,0.6-0.7,0.5c-0.399-0.1-0.6-0.4-0.6-0.7s0.1-0.6,0.1-0.9
	c0.101-0.4,0.3-0.6,0.7-0.6S126.6,50.3,126.6,50.8z"/>
<path fill="#1E6FB6" d="M53.7,38.8c0-0.2,0-0.3,0-0.5c0-0.4,0.3-0.7,0.7-0.6c0.4,0,0.6,0.3,0.6,0.7c0,0.3-0.1,0.6-0.1,1
	c-0.1,0.4-0.3,0.6-0.7,0.6c-0.3,0-0.6-0.3-0.6-0.6C53.6,39.1,53.6,38.9,53.7,38.8L53.7,38.8z"/>
<path fill="#2362AC" d="M141.5,29.6c0.2,0,0.4,0.1,0.5,0.3c0.2,0.3,0.4,0.6,0.5,0.9c0.1,0.3,0,0.7-0.3,0.8
	c-0.3,0.2-0.601,0.1-0.8-0.2c-0.2-0.3-0.4-0.6-0.5-0.9C140.8,30,141.1,29.6,141.5,29.6z"/>
<path fill="#29499A" d="M114.4,42.4c0,0.2,0,0.4,0,0.6c0,0.4-0.301,0.6-0.7,0.6c-0.4,0-0.601-0.3-0.601-0.7
	c0-0.3,0.101-0.6,0.101-0.9s0.3-0.6,0.6-0.5c0.3,0,0.601,0.3,0.601,0.6C114.4,42.2,114.4,42.3,114.4,42.4z"/>
<path fill="#1A72B8" d="M43,33.7c0,0.4-0.1,0.7-0.1,1c-0.1,0.4-0.3,0.6-0.7,0.5c-0.3,0-0.6-0.3-0.5-0.7c0-0.3,0-0.6,0.1-0.8
	c0-0.4,0.3-0.7,0.7-0.6C42.8,33.1,43.1,33.4,43,33.7z"/>
<path fill="#1576BB" d="M28.1,51.5c0.2,0,0.4,0.1,0.5,0.3c0.2,0.3,0.3,0.6,0.5,0.9c0.2,0.3,0.1,0.6-0.2,0.8
	c-0.3,0.2-0.6,0.1-0.8-0.2c-0.2-0.3-0.4-0.6-0.5-0.8C27.3,52,27.6,51.5,28.1,51.5z"/>
<path fill="#2362AC" d="M140,27.2c0,0.2-0.1,0.4-0.3,0.5c-0.2,0.1-0.4,0.1-0.601-0.1c-0.3-0.3-0.5-0.6-0.8-0.9
	c-0.2-0.2-0.1-0.5,0.101-0.7c0.199-0.2,0.5-0.2,0.699,0c0.301,0.3,0.5,0.6,0.801,0.9C140,27,140,27.1,140,27.2z"/>
<path fill="#1A72B8" d="M30.8,55.3c0.1,0,0.2,0,0.4,0.2c0.2,0.2,0.4,0.5,0.6,0.7c0.2,0.3,0.2,0.6,0,0.8c-0.2,0.2-0.6,0.2-0.8,0
	s-0.4-0.5-0.7-0.7c-0.2-0.2-0.2-0.4-0.1-0.6C30.3,55.4,30.5,55.3,30.8,55.3z"/>
<path fill="#294598" d="M138.1,46.3c0,0.2,0,0.5-0.1,0.7c0,0.4-0.3,0.6-0.6,0.6c-0.301,0-0.601-0.3-0.5-0.7c0-0.3,0.1-0.6,0.1-0.8
	c0.1-0.4,0.3-0.5,0.6-0.5c0.301,0,0.5,0.3,0.4,0.7C138.1,46.2,138.1,46.2,138.1,46.3L138.1,46.3z"/>
<path fill="#294598" d="M126.9,46.4c0,0.2,0,0.4,0,0.6c0,0.3-0.301,0.5-0.601,0.5s-0.5-0.3-0.5-0.6c0-0.3,0-0.7,0.101-1
	c0-0.3,0.3-0.5,0.6-0.5s0.5,0.3,0.5,0.6C126.9,46.2,126.9,46.3,126.9,46.4L126.9,46.4z"/>
<path fill="#2551A0" d="M101.3,36.7c0,0.1,0,0.2,0,0.4c0,0.3-0.2,0.6-0.6,0.6c-0.3,0-0.601-0.2-0.601-0.5c0-0.3,0-0.7,0-1
	c0-0.3,0.301-0.5,0.5-0.5c0.301,0,0.5,0.2,0.5,0.5C101.3,36.3,101.3,36.5,101.3,36.7z"/>
<path fill="#2551A0" d="M67.4,45.2c0-0.1,0-0.3,0-0.4c0-0.4,0.2-0.6,0.6-0.6c0.3,0,0.6,0.3,0.6,0.6c0,0.3,0,0.6,0,0.9
	c0,0.3-0.2,0.5-0.6,0.5c-0.3,0-0.5-0.2-0.5-0.5C67.4,45.5,67.4,45.4,67.4,45.2L67.4,45.2z"/>
<path fill="#2362AC" d="M135.4,22.9c0.1,0,0.1,0,0.199,0.1c0.301,0.2,0.601,0.4,0.9,0.7c0.2,0.1,0.2,0.3,0.1,0.5
	c-0.1,0.2-0.199,0.3-0.399,0.4c-0.101,0-0.3,0-0.4-0.1c-0.3-0.2-0.6-0.4-0.8-0.7c-0.2-0.2-0.2-0.4-0.1-0.6
	C135,23,135.2,22.9,135.4,22.9z"/>
<path fill="#1A72B8" d="M31.1,35.9c0-0.4,0.1-0.7,0.1-1c0.1-0.3,0.3-0.6,0.6-0.5c0.3,0.1,0.5,0.3,0.5,0.7c0,0.3-0.1,0.5-0.1,0.8
	c-0.1,0.4-0.3,0.6-0.6,0.5C31.3,36.4,31,36.2,31.1,35.9z"/>
<path fill="#1E6FB6" d="M34.1,58.4c0.1,0,0.2,0,0.3,0.1c0.3,0.2,0.6,0.4,0.9,0.7c0.2,0.2,0.2,0.5,0.1,0.7c-0.2,0.2-0.5,0.3-0.7,0.2
	c-0.3-0.2-0.6-0.4-0.8-0.6c-0.3-0.2-0.2-0.6,0-0.8C33.9,58.5,34,58.4,34.1,58.4z"/>
<path fill="#1E6FB6" d="M54.7,43.4c0,0.2,0,0.3,0,0.5c0,0.3-0.2,0.5-0.5,0.5c-0.3,0-0.5-0.2-0.5-0.5c0-0.3,0-0.6,0-0.9
	s0.2-0.5,0.5-0.6c0.3,0,0.6,0.2,0.6,0.5C54.7,43.1,54.7,43.2,54.7,43.4L54.7,43.4z"/>
<path fill="#1E6FB6" d="M42.6,38.7c0,0.2,0,0.3,0,0.5c0,0.3-0.2,0.5-0.5,0.5c-0.3,0-0.5-0.2-0.5-0.5c0-0.3,0-0.6,0-0.9
	c0-0.3,0.2-0.6,0.5-0.5c0.3,0,0.5,0.2,0.5,0.6C42.6,38.5,42.6,38.6,42.6,38.7L42.6,38.7z"/>
<path fill="#2362AC" d="M131.5,20.5h0.1c0.301,0.2,0.7,0.3,1,0.5c0.2,0.1,0.2,0.3,0.2,0.5s-0.2,0.3-0.399,0.4
	c-0.101,0-0.2,0-0.301,0c-0.3-0.1-0.699-0.3-1-0.5c-0.199-0.1-0.199-0.4-0.199-0.6C131.1,20.6,131.3,20.5,131.5,20.5z"/>
<path fill="#216BB3" d="M39.3,61.9c0,0.3-0.3,0.6-0.6,0.5c-0.3-0.1-0.6-0.3-1-0.5c-0.2-0.1-0.3-0.4-0.2-0.6c0.1-0.2,0.4-0.4,0.6-0.3
	c0.3,0.1,0.7,0.3,1,0.5C39.2,61.6,39.3,61.7,39.3,61.9z"/>
<path fill="#284D9D" d="M113.4,37.9c0-0.2,0-0.3,0-0.5c0-0.3,0.199-0.5,0.5-0.5c0.3,0,0.5,0.2,0.5,0.5c0,0.3,0,0.6,0,0.9
	c0,0.2-0.2,0.4-0.4,0.5c-0.2,0-0.4,0-0.5-0.2c-0.1-0.1-0.1-0.2-0.1-0.3C113.4,38.2,113.4,38,113.4,37.9L113.4,37.9z"/>
<path fill="#2667AF" d="M127.4,18.8c0.3,0.1,0.699,0.2,1,0.4c0.199,0.1,0.3,0.3,0.199,0.6c-0.1,0.2-0.3,0.3-0.5,0.3H128
	c-0.3-0.1-0.6-0.2-0.9-0.3c-0.199-0.1-0.3-0.3-0.3-0.5C126.9,18.9,127.1,18.8,127.4,18.8z"/>
<path fill="#29499A" d="M127,41.9c0,0.2,0,0.3,0,0.5c0,0.3-0.2,0.5-0.5,0.5s-0.4-0.2-0.4-0.5c0-0.3,0-0.6,0-0.9s0.2-0.5,0.5-0.5
	c0.301,0,0.4,0.2,0.5,0.4C127,41.6,127,41.7,127,41.9L127,41.9z"/>
<path fill="#2667AF" d="M43.5,63.5c0,0.3-0.2,0.6-0.5,0.5s-0.7-0.2-1-0.3c-0.2-0.1-0.3-0.3-0.2-0.5c0.1-0.2,0.2-0.3,0.4-0.3
	c0.1,0,0.1,0,0.2,0c0.3,0.1,0.5,0.2,0.8,0.3C43.4,63.2,43.5,63.3,43.5,63.5z"/>
<path fill="#1E6FB6" d="M31.8,40.1c0,0.2,0,0.3,0,0.5c0,0.3-0.2,0.4-0.4,0.4c-0.2,0-0.4-0.2-0.4-0.4c0-0.3,0-0.6,0-0.9
	c0-0.3,0.2-0.5,0.4-0.5c0.3,0,0.4,0.2,0.4,0.5C31.8,39.8,31.8,39.9,31.8,40.1L31.8,40.1z"/>
<path fill="#2667AF" d="M122.9,17.7c0.3,0,0.6,0.1,1,0.2c0.199,0.1,0.399,0.3,0.3,0.5c0,0.2-0.2,0.4-0.5,0.3c-0.3,0-0.601-0.1-1-0.2
	c-0.2-0.1-0.3-0.3-0.3-0.5C122.5,17.8,122.6,17.7,122.9,17.7z"/>
<path fill="#29499A" d="M138.3,41.9c0,0.1,0,0.3,0,0.4c0,0.3-0.2,0.5-0.5,0.4c-0.2,0-0.399-0.2-0.399-0.5c0-0.3,0-0.6,0-0.9
	c0-0.3,0.199-0.4,0.399-0.4s0.4,0.2,0.4,0.4C138.3,41.6,138.3,41.7,138.3,41.9L138.3,41.9z"/>
<path fill="#2667AF" d="M47.4,65c-0.3,0-0.6-0.1-0.9-0.2c-0.2-0.1-0.3-0.3-0.3-0.5c0-0.2,0.2-0.4,0.4-0.3c0.3,0,0.7,0.1,1,0.2
	c0.2,0,0.3,0.3,0.3,0.5C47.9,64.9,47.7,65,47.4,65z"/>
<path fill="#216BB3" d="M42.7,43.4c0,0.1,0,0.3,0,0.4c0,0.3-0.1,0.4-0.4,0.5c-0.2,0-0.4-0.1-0.4-0.4c0-0.3-0.1-0.6-0.1-0.9
	s0.1-0.5,0.4-0.5c0.2,0,0.4,0.2,0.5,0.4C42.7,43.1,42.7,43.2,42.7,43.4L42.7,43.4z"/>
<path fill="#1E6FB6" d="M54.9,48.1c0,0.1,0,0.2,0,0.3c0,0.2-0.1,0.4-0.3,0.4c-0.2,0-0.4-0.1-0.4-0.3c-0.1-0.3-0.1-0.6-0.1-1
	c0-0.2,0.2-0.4,0.4-0.4s0.4,0.1,0.4,0.4C54.9,47.7,54.9,47.9,54.9,48.1L54.9,48.1z"/>
<path fill="#2667AF" d="M118.6,17.2c0.2,0,0.4,0,0.601,0s0.399,0.2,0.399,0.4c0,0.2-0.199,0.4-0.399,0.4c-0.3,0-0.601,0-0.9-0.1
	c-0.2,0-0.399-0.2-0.399-0.4s0.199-0.3,0.399-0.3C118.4,17.2,118.5,17.2,118.6,17.2z"/>
<path fill="#2362AC" d="M51.6,65.4c-0.2,0-0.3,0-0.5,0c-0.2,0-0.4-0.2-0.4-0.4s0.2-0.4,0.4-0.4c0.3,0,0.6,0,0.9,0
	c0.2,0,0.4,0.2,0.4,0.4s-0.2,0.4-0.4,0.4C51.9,65.4,51.8,65.4,51.6,65.4L51.6,65.4z"/>
<path fill="#215AA6" d="M68.4,49.9c0,0.1,0,0.3,0,0.4c0,0.2-0.1,0.4-0.3,0.4c-0.2,0-0.3-0.1-0.4-0.3c0-0.3-0.1-0.6-0.1-0.9
	s0.2-0.4,0.4-0.4s0.4,0.2,0.4,0.4C68.4,49.6,68.4,49.7,68.4,49.9L68.4,49.9z"/>
<path fill="#2551A0" d="M113.4,33.2c0-0.1,0-0.3,0-0.4c0-0.2,0.1-0.4,0.3-0.4s0.399,0.1,0.399,0.3c0,0.3,0.101,0.6,0.101,0.9
	c0,0.2-0.101,0.4-0.4,0.4c-0.2,0-0.399-0.1-0.399-0.4C113.4,33.6,113.4,33.4,113.4,33.2L113.4,33.2z"/>
<path fill="#284D9D" d="M126.9,37.6v0.1c0,0.2-0.2,0.4-0.4,0.4s-0.4-0.1-0.4-0.4c0-0.3,0-0.6,0-0.9c0-0.2,0.101-0.4,0.301-0.4
	c0.199,0,0.399,0.1,0.399,0.4C126.9,37.1,126.9,37.3,126.9,37.6L126.9,37.6z"/>
<path fill="#215AA6" d="M100.2,32c0-0.1,0-0.3,0-0.4c0-0.2,0.1-0.3,0.3-0.3s0.3,0.1,0.4,0.3c0,0.3,0.1,0.7,0.1,1
	c0,0.2-0.1,0.4-0.3,0.4s-0.4-0.1-0.4-0.4C100.2,32.3,100.2,32.2,100.2,32L100.2,32z"/>
<path fill="#216BB3" d="M114.1,17.9c-0.1,0-0.3,0-0.399,0c-0.2,0-0.3-0.1-0.3-0.3c0-0.2,0.1-0.3,0.3-0.4c0.399-0.1,0.7-0.1,1.1,0
	c0.2,0,0.3,0.2,0.3,0.3c0,0.2-0.1,0.3-0.3,0.4C114.5,18,114.3,17.9,114.1,17.9z"/>
<path fill="#215AA6" d="M56.2,64.6c0.1,0,0.3,0,0.4,0c0.2,0,0.3,0.1,0.4,0.3c0,0.2-0.1,0.3-0.3,0.4c-0.3,0-0.6,0.1-0.9,0.1
	c-0.2,0-0.4-0.1-0.4-0.3c0-0.2,0.1-0.3,0.3-0.4c0,0,0,0,0.1,0C55.9,64.6,56.1,64.6,56.2,64.6L56.2,64.6z"/>
<path fill="#2667AF" d="M31.3,44.3c0-0.2,0.1-0.4,0.3-0.4c0.2,0,0.3,0.1,0.4,0.3c0,0.3,0.1,0.6,0.1,0.9c0,0.2-0.1,0.3-0.3,0.4
	c-0.2,0-0.3-0.1-0.4-0.3C31.4,44.9,31.3,44.5,31.3,44.3z"/>
<path fill="#216BB3" d="M109.2,18.3c-0.2,0-0.4-0.1-0.4-0.3s0.101-0.3,0.3-0.3c0.301-0.1,0.601-0.1,0.9-0.1c0.2,0,0.3,0.1,0.3,0.3
	c0,0.2-0.1,0.3-0.3,0.4C109.8,18.3,109.5,18.3,109.2,18.3z"/>
<path fill="#2667AF" d="M43.1,48.3c0,0.3-0.1,0.4-0.3,0.4c-0.2,0-0.3-0.1-0.3-0.3c-0.1-0.3-0.1-0.6-0.1-0.9c0-0.2,0.1-0.4,0.3-0.4
	c0.2,0,0.3,0.1,0.4,0.3C43,47.8,43.1,48.1,43.1,48.3z"/>
<path fill="#2356A3" d="M60.3,64.8c-0.2,0-0.3-0.1-0.3-0.2c0-0.2,0-0.3,0.2-0.4c0.3-0.1,0.6-0.1,0.9-0.2c0.2,0,0.3,0.1,0.3,0.2
	c0,0.2,0,0.3-0.2,0.4c-0.1,0-0.1,0-0.2,0C60.8,64.6,60.6,64.7,60.3,64.8z"/>
<path fill="#2551A0" d="M137.4,37.2c0-0.1,0-0.2,0-0.4c0-0.2,0.1-0.3,0.3-0.3s0.3,0.1,0.3,0.2c0,0.3,0.1,0.6,0.1,0.9
	c0,0.2-0.1,0.3-0.3,0.3s-0.3-0.1-0.3-0.3C137.4,37.6,137.4,37.4,137.4,37.2L137.4,37.2z"/>
<path fill="#2356A3" d="M125.9,32.4c0-0.1,0-0.2,0-0.3c0-0.2,0.1-0.2,0.199-0.3c0.101,0,0.301,0.1,0.301,0.2s0,0.2,0,0.3
	c0,0.2,0,0.4,0.1,0.6c0,0.2-0.1,0.3-0.3,0.3s-0.3-0.1-0.3-0.3C126,32.9,125.9,32.7,125.9,32.4L125.9,32.4z"/>
<path fill="#2667AF" d="M55.5,53c0,0.2-0.1,0.3-0.2,0.3c-0.1,0-0.3,0-0.3-0.2c-0.1-0.3-0.1-0.6-0.2-0.9c0-0.2,0.1-0.3,0.2-0.3
	c0.2,0,0.3,0,0.3,0.2C55.4,52.4,55.4,52.7,55.5,53z"/>
<path fill="#216BB3" d="M104.7,19.2c-0.101,0-0.2-0.1-0.3-0.2c0-0.1,0-0.2,0.1-0.3h0.1c0.301-0.1,0.5-0.2,0.801-0.2
	c0.199,0,0.3,0,0.399,0.2c0,0.2,0,0.3-0.2,0.3c-0.3,0.1-0.5,0.1-0.8,0.2C104.7,19.2,104.7,19.2,104.7,19.2z"/>
<path fill="#2551A0" d="M64.8,63.5c-0.2,0-0.3-0.1-0.3-0.2c0-0.1,0-0.3,0.1-0.3c0.2-0.1,0.4-0.1,0.6-0.2c0.1,0,0.3-0.1,0.4-0.1
	s0.2,0,0.3,0.2c0,0.1,0,0.3-0.1,0.3C65.4,63.3,65.1,63.4,64.8,63.5z"/>
<path fill="#2362AC" d="M113,28.3C113,28.2,113,28.2,113,28.3c0-0.2,0.1-0.3,0.2-0.3c0.1,0,0.2,0,0.2,0.2c0.1,0.3,0.1,0.7,0.199,1
	c0,0.1-0.1,0.2-0.199,0.3c-0.101,0-0.301-0.1-0.301-0.3C113.1,28.8,113.1,28.6,113,28.3z"/>
<path fill="#1E6FB6" d="M100.4,20.8c-0.101,0-0.2-0.1-0.2-0.2s0-0.2,0-0.2l0.1-0.1c0.3-0.1,0.5-0.2,0.8-0.4h0.101
	c0.1,0,0.2,0,0.3,0.1s0,0.2-0.1,0.3C101,20.5,100.7,20.7,100.4,20.8L100.4,20.8z"/>
<path fill="#284D9D" d="M69.9,61c0,0.1-0.1,0.2-0.1,0.2c-0.3,0.1-0.5,0.3-0.8,0.4c-0.1,0.1-0.3,0-0.3-0.1c-0.1-0.1,0-0.2,0.1-0.3
	c0.3-0.1,0.5-0.3,0.8-0.4C69.8,60.7,69.9,60.8,69.9,61z"/>
<path fill="#2362AC" d="M43.8,53c0,0.1,0,0.2-0.2,0.2c-0.1,0-0.2,0-0.2-0.1c-0.1-0.3-0.1-0.6-0.2-0.9c0-0.1,0.1-0.2,0.2-0.3
	c0.1,0,0.2,0.1,0.2,0.2C43.7,52.3,43.8,52.6,43.8,53z"/>
<path fill="#2667AF" d="M32.8,49.6c0,0.1,0,0.2-0.1,0.3c-0.1,0-0.2,0-0.2-0.1c-0.1-0.3-0.2-0.6-0.2-0.9c0-0.1,0-0.2,0.2-0.2
	c0.1,0,0.2,0,0.3,0.1C32.7,49,32.7,49.3,32.8,49.6z"/>
<path fill="#2667AF" d="M100,27.3c0-0.1,0-0.2,0-0.4c0-0.1,0-0.2,0.2-0.2c0.1,0,0.2,0.1,0.2,0.2c0,0.3,0.1,0.6,0.1,0.8
	c0,0.2-0.1,0.3-0.2,0.3c-0.1,0-0.2-0.1-0.2-0.2C100,27.7,100,27.5,100,27.3L100,27.3z"/>
<path fill="#1E6FB6" d="M97.4,22.4c0,0.1,0,0.1-0.101,0.2c-0.2,0.2-0.5,0.3-0.7,0.5c-0.1,0.1-0.199,0.1-0.3,0
	c-0.1-0.1-0.1-0.2,0.101-0.3c0.199-0.2,0.5-0.4,0.699-0.5C97.2,22.1,97.4,22.2,97.4,22.4z"/>
<path fill="#2667AF" d="M68.7,54.7c0,0.1,0,0.1,0,0.2s0,0.2-0.1,0.2s-0.2,0-0.2-0.1s-0.1-0.3-0.1-0.4c0-0.2-0.1-0.3-0.1-0.5
	c0-0.1,0.1-0.2,0.2-0.3c0.1,0,0.2,0.1,0.2,0.2C68.6,54.3,68.7,54.5,68.7,54.7L68.7,54.7z"/>
<path fill="#2667AF" d="M126,28.4c0,0.2-0.1,0.3-0.2,0.3c-0.1,0-0.2-0.1-0.2-0.2c0-0.3-0.1-0.6-0.1-0.9c0-0.1,0-0.2,0.1-0.2
	c0.101,0,0.2,0,0.2,0.2C125.9,27.9,125.9,28.2,126,28.4z"/>
<path fill="#284D9D" d="M72.8,59.2c-0.1,0-0.2,0-0.2-0.1s0-0.1,0-0.2l0.1-0.1c0.2-0.2,0.4-0.3,0.7-0.5c0.1-0.1,0.2-0.1,0.3,0
	c0.1,0.1,0.1,0.2,0,0.3C73.4,58.7,73.1,58.9,72.8,59.2C72.9,59.1,72.8,59.2,72.8,59.2z"/>
<path fill="#2667AF" d="M136.8,32.3c0-0.1,0-0.2,0.101-0.2c0.1,0,0.199,0,0.199,0.1c0.101,0.3,0.101,0.6,0.2,0.8
	c0,0.1,0,0.2-0.1,0.3c-0.101,0-0.2,0-0.2-0.2C136.9,32.9,136.8,32.6,136.8,32.3z"/>
<path fill="#2667AF" d="M56.3,57.5c0,0.1,0,0.2-0.1,0.2c-0.1,0-0.1,0-0.2-0.1c-0.1-0.3-0.2-0.6-0.2-0.9c0-0.1,0-0.2,0.1-0.2
	s0.2,0,0.2,0.1C56.2,56.9,56.3,57.2,56.3,57.5z"/>
<path fill="#1E6FB6" d="M93.6,25.1c0.101,0,0.2,0.1,0.2,0.2l-0.1,0.1c-0.2,0.2-0.3,0.4-0.5,0.5L93.1,26C93,26,93,26,92.9,26
	c-0.101-0.1-0.101-0.1,0-0.2C93.1,25.6,93.3,25.4,93.6,25.1C93.6,25.2,93.6,25.2,93.6,25.1z"/>
<path fill="#284D9D" d="M76.2,56.1c-0.1,0-0.2-0.1-0.1-0.2c0-0.1,0.1-0.1,0.2-0.2c0.2-0.2,0.3-0.3,0.5-0.5c0.1-0.1,0.1-0.1,0.2,0
	c0.1,0.1,0.1,0.2,0,0.2c-0.2,0.2-0.4,0.4-0.6,0.7C76.3,56.1,76.3,56.1,76.2,56.1z"/>
<path fill="#2667AF" d="M112.4,23.7c0-0.1,0-0.2,0.1-0.2s0.1,0,0.1,0.1c0.101,0.3,0.101,0.6,0.2,0.8c0,0.1,0,0.2-0.1,0.2
	c-0.101,0-0.101,0-0.2-0.1C112.5,24.3,112.4,24,112.4,23.7z"/>
<path fill="#1A72B8" d="M90.8,28.8C90.8,28.9,90.8,28.9,90.8,28.8c-0.2,0.3-0.399,0.5-0.5,0.7c0,0.1-0.1,0.1-0.2,0.1
	c-0.1-0.1,0-0.1,0-0.2c0.2-0.2,0.301-0.5,0.5-0.7c0-0.1,0.101-0.1,0.2-0.1C90.8,28.7,90.8,28.8,90.8,28.8z"/>
<path fill="#284D9D" d="M79.2,52.5c-0.1,0-0.2-0.1-0.1-0.2c0.2-0.3,0.4-0.5,0.5-0.8c0,0,0.1-0.1,0.1,0c0.1,0,0.1,0.1,0,0.2
	c-0.2,0.2-0.3,0.5-0.5,0.7C79.3,52.5,79.2,52.5,79.2,52.5z"/>
<path fill="#2362AC" d="M44.7,57.4c0,0.1,0,0.1-0.1,0.2c-0.1,0-0.1,0-0.1-0.1c-0.1-0.3-0.2-0.6-0.2-0.8c0-0.1,0-0.1,0.1-0.2
	c0.1,0,0.1,0,0.1,0.1C44.6,56.9,44.6,57.2,44.7,57.4z"/>
<path fill="#2667AF" d="M125.2,23.8c0,0.1,0,0.2-0.101,0.2c-0.1,0-0.1,0-0.1-0.1c-0.1-0.3-0.1-0.6-0.1-0.9c0-0.1,0-0.1,0.1-0.1
	s0.1,0,0.1,0.1C125.1,23.3,125.1,23.6,125.2,23.8z"/>
<path fill="#2667AF" d="M33.6,53.1c0.1,0,0.1,0,0.1,0.1c0.1,0.3,0.2,0.6,0.2,0.8c0,0,0,0.1-0.1,0.1c-0.1,0-0.1,0-0.1-0.1
	c-0.1-0.3-0.2-0.6-0.3-0.9C33.5,53.2,33.5,53.1,33.6,53.1z"/>
<path fill="#1A72B8" d="M88.3,32.8L88.3,32.8c-0.2,0.3-0.3,0.5-0.399,0.8c0,0.1-0.101,0.1-0.101,0.1c-0.1,0,0-0.1,0-0.2
	c0.101-0.2,0.2-0.5,0.3-0.7c0,0,0-0.1,0.101-0.1C88.2,32.7,88.3,32.7,88.3,32.8C88.3,32.7,88.3,32.7,88.3,32.8z"/>
<path fill="#284D9D" d="M82.2,47.7C82.2,47.7,82.2,47.8,82.2,47.7c-0.1,0.3-0.3,0.6-0.4,0.8c0,0-0.1,0.1-0.1,0c0,0-0.1-0.1,0-0.1
	c0.1-0.3,0.3-0.5,0.4-0.8C82.1,47.7,82.1,47.6,82.2,47.7L82.2,47.7z"/>
<path fill="#1A72B8" d="M86,37.8c0-0.2,0.2-0.7,0.3-0.9C86.4,37.1,86.2,37.6,86,37.8z"/>
<path fill="#1E6FB6" d="M136,27.7c0.1,0.3,0.1,0.6,0.2,0.8v0.1c-0.101,0-0.101,0-0.101-0.1C136.1,28.3,136,28,136,27.7L136,27.7z"/>
<path fill="#2667AF" d="M84.1,43.5c-0.1,0.4-0.2,0.6-0.4,0.9C83.7,44.2,83.9,43.7,84.1,43.5z"/>
<path fill="#2667AF" d="M57.2,61.1c0.1,0.3,0.2,0.6,0.3,0.9C57.3,61.7,57.2,61.4,57.2,61.1z"/>
<path fill="#1E6FB6" d="M69.2,59.4c0-0.3-0.2-0.5-0.2-0.8C69.2,58.8,69.2,59.1,69.2,59.4z"/>
<path fill="#1E6FB6" d="M99.5,22.7c0,0.1,0.1,0.3,0.1,0.6C99.5,23.1,99.5,22.9,99.5,22.7z"/>
</svg>
