<?xml version="1.0" encoding="utf-8"?>
<!-- Generator: Adobe Illustrator 16.0.0, SVG Export Plug-In . SVG Version: 6.00 Build 0)  -->
<!DOCTYPE svg PUBLIC "-//W3C//DTD SVG 1.1//EN" "http://www.w3.org/Graphics/SVG/1.1/DTD/svg11.dtd">
<svg version="1.1" id="Layer_2" xmlns="http://www.w3.org/2000/svg" xmlns:xlink="http://www.w3.org/1999/xlink" x="0px" y="0px"
	 width="384px" height="384px" viewBox="0 0 384 384" enable-background="new 0 0 384 384" xml:space="preserve">
<g opacity="0.2">
	<path fill="none" stroke="#CE0000" stroke-width="3" stroke-linecap="round" stroke-linejoin="round" stroke-miterlimit="10" d="
		M92.796,260.619c1.895-1.895,3.782-3.23,5.663-4.009s3.691-1.132,5.432-1.062c1.739,0.072,3.38,0.496,4.921,1.273
		c1.542,0.777,2.935,1.789,4.179,3.033c1.217,1.217,2.221,2.603,3.013,4.158s1.224,3.203,1.294,4.941
		c0.07,1.741-0.283,3.551-1.061,5.432c-0.778,1.881-2.115,3.77-4.01,5.664l-7,7l10.861,10.861l-6.661,6.66l-30.292-30.291
		L92.796,260.619z M105.227,276.699c0.764-0.764,1.442-1.555,2.037-2.376c0.594-0.82,0.996-1.662,1.209-2.524
		c0.211-0.862,0.184-1.754-0.085-2.674c-0.27-0.918-0.884-1.859-1.846-2.82c-0.962-0.962-1.903-1.577-2.821-1.846
		c-0.92-0.27-1.811-0.297-2.673-0.086c-0.862,0.213-1.704,0.617-2.524,1.211s-1.612,1.271-2.376,2.035l-5.176,5.176l9.079,9.08
		L105.227,276.699z"/>
	<path fill="none" stroke="#CE0000" stroke-width="3" stroke-linecap="round" stroke-linejoin="round" stroke-miterlimit="10" d="
		M124.191,229.225c1.357-1.358,2.8-2.361,4.327-3.014c1.527-0.648,3.062-0.982,4.604-0.996c1.541-0.014,3.019,0.276,4.434,0.869
		c1.414,0.596,2.7,1.472,3.86,2.631c1.781,1.782,2.949,3.699,3.5,5.748c0.553,2.052,0.318,4.264-0.699,6.641l0.084,0.084
		c1.047-0.593,2.072-0.926,3.076-0.996s1.994,0.043,2.971,0.339c0.975,0.297,1.922,0.75,2.842,1.358
		c0.919,0.607,1.789,1.266,2.609,1.973c0.51,0.453,1.104,0.99,1.781,1.611c0.68,0.623,1.393,1.238,2.143,1.846
		c0.75,0.609,1.507,1.139,2.27,1.592c0.765,0.453,1.514,0.734,2.249,0.848l-6.661,6.661c-1.328-0.593-2.7-1.513-4.115-2.758
		c-1.414-1.244-2.813-2.39-4.199-3.437c-1.811-1.356-3.451-2.035-4.922-2.036c-1.471,0.001-3.041,0.835-4.709,2.503l-6.662,6.661
		l11.838,11.837l-6.661,6.66l-30.292-30.291L124.191,229.225z M135.52,245.304c1.527-1.527,2.333-3.013,2.418-4.455
		c0.084-1.442-0.637-2.927-2.164-4.454c-1.471-1.471-2.92-2.157-4.349-2.059c-1.429,0.1-2.906,0.912-4.434,2.439l-7.298,7.298
		l8.528,8.528L135.52,245.304z"/>
	<path fill="none" stroke="#CE0000" stroke-width="3" stroke-linecap="round" stroke-linejoin="round" stroke-miterlimit="10" d="
		M161.568,191.847l5.6,5.6l-15.994,15.994l6.49,6.491l14.68-14.679l5.176,5.176l-14.679,14.68l7.425,7.424l16.334-16.334l5.6,5.601
		l-22.994,22.995l-30.293-30.292L161.568,191.847z"/>
	<path fill="none" stroke="#CE0000" stroke-width="3" stroke-linecap="round" stroke-linejoin="round" stroke-miterlimit="10" d="
		M203.697,210.303l-40.092-20.492l6.83-6.831l28.043,14.551l0.085-0.084l-14.467-28.128l6.873-6.873l20.237,40.347L203.697,210.303z
		"/>
	<path fill="none" stroke="#CE0000" stroke-width="3" stroke-linecap="round" stroke-linejoin="round" stroke-miterlimit="10" d="
		M200.643,152.773l30.291,30.292l-6.66,6.661l-30.292-30.292L200.643,152.773z"/>
	<path fill="none" stroke="#CE0000" stroke-width="3" stroke-linecap="round" stroke-linejoin="round" stroke-miterlimit="10" d="
		M229.577,123.838l5.601,5.6l-15.995,15.995l6.491,6.491l14.679-14.679l5.177,5.176L230.85,157.1l7.425,7.425l16.334-16.334
		l5.601,5.6l-22.996,22.995l-30.291-30.292L229.577,123.838z"/>
	<path fill="none" stroke="#CE0000" stroke-width="3" stroke-linecap="round" stroke-linejoin="round" stroke-miterlimit="10" d="
		M287.361,126.638l-25.753-15.485l-0.085,0.084l15.57,25.668l-6.746,6.746l-38.311-22.273l6.662-6.661l25.412,15.825l0.085-0.085
		l-15.358-25.879l6.237-6.237l26.05,15.698l0.084-0.085l-15.908-25.838l6.533-6.533l22.146,38.438L287.361,126.638z"/>
</g>
</svg>
